# FreeCAD v0.19 build24291 (Git) Arch module
# http://www.freecadweb.org
mtllib puerta-1.mtl
o Fusion
usemtl color_cccccc
v 6.0 0.0 0.0
v 6.0 0.0 1.0
v 6.0 5.0 0.0
v 6.0 5.0 1.0
v 21.0 0.0 0.0
v 21.0 0.0 1.0
v 18.061073 0.954915 1.0
v 16.954914 2.061074 1.0
v 16.244717 3.454915 1.0
v 19.454914 0.244717 1.0
v 16.0 5.0 1.0
v 16.0 5.0 0.0
v 16.954914 2.061074 0.0
v 18.061073 0.954915 0.0
v 16.244717 3.454915 0.0
v 19.454914 0.244717 0.0
v 22.545086 0.244717 1.0
v 22.545086 0.244717 0.0
v 23.938927 0.954915 1.0
v 23.938927 0.954915 0.0
v 25.045086 2.061074 1.0
v 25.045086 2.061074 0.0
v 25.755283 3.454915 1.0
v 25.755283 3.454915 0.0
v 26.0 5.0 1.0
v 26.0 5.0 0.0
v 21.0 5.0 1.0
v 21.0 5.0 0.0
vn -1.0 0.0 0.0
vn -1.0 0.0 0.0
vn 0.0 -1.0 0.0
vn 0.0 -1.0 0.0
vn 0.0 0.0 1.0
vn 0.0 0.0 1.0
vn 0.0 0.0 1.0
vn 0.0 0.0 1.0
vn 0.0 0.0 1.0
vn 0.0 0.0 1.0
vn 0.0 1.0 0.0
vn 0.0 1.0 0.0
vn 0.0 -0.0 -1.0
vn 0.0 0.0 -1.0
vn 0.0 0.0 -1.0
vn 0.0 -0.0 -1.0
vn 0.0 0.0 -1.0
vn 0.0 -0.0 -1.0
vn 0.15643437206745148 -0.9876883625984192 0.0
vn 0.15643437206745148 -0.9876883625984192 0.0
vn 0.4539906084537506 -0.8910064101219177 0.0
vn 0.4539906084537506 -0.8910064101219177 0.0
vn 0.7071065902709961 -0.70710688829422 0.0
vn 0.7071065902709961 -0.70710688829422 0.0
vn 0.891006588935852 -0.4539904296398163 0.0
vn 0.891006588935852 -0.4539904296398163 0.0
vn 0.987688422203064 -0.15643398463726044 0.0
vn 0.987688422203064 -0.15643398463726044 0.0
vn 0.0 0.0 1.0
vn 0.0 0.0 1.0
vn 0.0 0.0 1.0
vn 0.0 0.0 1.0
vn 0.0 0.0 1.0
vn 0.0 1.0 0.0
vn 0.0 1.0 0.0
vn 0.0 0.0 -1.0
vn 0.0 0.0 -1.0
vn 0.0 0.0 -1.0
vn 0.0 0.0 -1.0
vn 0.0 0.0 -1.0
vn 0.0 0.0 1.0
vn -0.0 0.0 1.0
vn 0.0 -0.0 1.0
vn 0.0 -0.0 1.0
vn 0.0 0.0 1.0
vn -0.0 1.0 0.0
vn 0.0 1.0 0.0
vn 0.0 0.0 -1.0
vn 0.0 0.0 -1.0
vn -0.0 0.0 -1.0
vn -0.0 0.0 -1.0
vn -0.0 0.0 -1.0
f 1//1 2//1 3//1 
f 3//2 2//2 4//2 
f 5//3 6//3 1//3 
f 1//4 6//4 2//4 
f 7//5 8//5 2//5 
f 9//6 4//6 2//6 
f 9//7 2//7 8//7 
f 10//8 7//8 2//8 
f 11//9 4//9 9//9 
f 6//10 10//10 2//10 
f 11//11 12//11 3//11 
f 11//12 3//12 4//12 
f 13//13 14//13 1//13 
f 3//14 15//14 1//14 
f 1//15 15//15 13//15 
f 14//16 16//16 1//16 
f 3//17 12//17 15//17 
f 16//18 5//18 1//18 
f 17//19 6//19 5//19 
f 17//20 5//20 18//20 
f 19//21 18//21 20//21 
f 19//22 17//22 18//22 
f 21//23 20//23 22//23 
f 21//24 19//24 20//24 
f 23//25 22//25 24//25 
f 23//26 21//26 22//26 
f 25//27 24//27 26//27 
f 25//28 23//28 24//28 
f 27//29 11//29 9//29 
f 27//30 9//30 8//30 
f 27//31 8//31 7//31 
f 27//32 7//32 10//32 
f 27//33 10//33 6//33 
f 27//34 28//34 12//34 
f 27//35 12//35 11//35 
f 12//36 28//36 15//36 
f 15//37 28//37 13//37 
f 13//38 28//38 14//38 
f 14//39 28//39 16//39 
f 16//40 28//40 5//40 
f 27//41 21//41 23//41 
f 27//42 23//42 25//42 
f 19//43 21//43 27//43 
f 17//44 19//44 27//44 
f 6//45 17//45 27//45 
f 27//46 25//46 28//46 
f 28//47 25//47 26//47 
f 22//48 28//48 24//48 
f 24//49 28//49 26//49 
f 22//50 20//50 28//50 
f 20//51 18//51 28//51 
f 18//52 5//52 28//52 
