# FreeCAD v0.19 build24291 (Git) Arch module
# http://www.freecadweb.org
mtllib treen-2.mtl
o Fillet002
usemtl color_cccccc
v 8.0 2.5 -5.0
v 8.048944 2.190983 -5.0
v 8.190983 1.912215 -5.0
v 8.412214 1.690983 -5.0
v 8.690983 1.548944 -5.0
v 9.0 1.5 -5.0
v 9.0 8.5 -5.0
v 8.690983 8.451056 -5.0
v 8.412214 8.309017 -5.0
v 8.190983 8.087786 -5.0
v 8.048944 7.809017 -5.0
v 8.0 7.5 -5.0
v 20.0 3.5 -5.0
v 19.618034 2.32443 -5.0
v 19.902113 2.881966 -5.0
v 19.175571 1.881966 -5.0
v 18.618034 1.597887 -5.0
v 18.0 1.5 -5.0
v 18.0 8.5 -5.0
v 20.0 6.5 -5.0
v 18.618034 8.402113 -5.0
v 19.902113 7.118034 -5.0
v 19.175571 8.118034 -5.0
v 19.618034 7.67557 -5.0
v 18.0 8.5 -6.0
v 9.0 8.5 -6.0
v 8.690983 8.451056 -6.0
v 8.412214 8.309017 -6.0
v 8.190983 8.087786 -6.0
v 8.048944 7.809017 -6.0
v 8.0 7.5 -6.0
v 20.0 6.5 -6.0
v 19.902113 7.118034 -6.0
v 19.618034 7.67557 -6.0
v 19.175571 8.118034 -6.0
v 18.618034 8.402113 -6.0
v 8.0 2.5 -6.0
v 20.0 3.5 -6.0
v 8.048944 2.190983 -6.0
v 8.190983 1.912215 -6.0
v 8.412214 1.690983 -6.0
v 8.690983 1.548944 -6.0
v 9.0 1.5 -6.0
v 19.902113 2.881966 -6.0
v 19.618034 2.32443 -6.0
v 19.175571 1.881966 -6.0
v 18.618034 1.597887 -6.0
v 18.0 1.5 -6.0
vn 0.0 0.0 1.0
vn 0.0 0.0 1.0
vn 0.0 0.0 1.0
vn 0.0 0.0 1.0
vn 0.0 0.0 1.0
vn 0.0 0.0 1.0
vn 0.0 0.0 1.0
vn 0.0 0.0 1.0
vn 0.0 0.0 1.0
vn 0.0 0.0 1.0
vn 0.0 0.0 1.0
vn 0.0 0.0 1.0
vn 0.0 0.0 1.0
vn 0.0 0.0 1.0
vn 0.0 0.0 1.0
vn 0.0 0.0 1.0
vn 0.0 0.0 1.0
vn 0.0 0.0 1.0
vn 0.0 0.0 1.0
vn 0.0 0.0 1.0
vn 0.0 0.0 1.0
vn 0.0 0.0 1.0
vn 0.0 1.0 0.0
vn 0.0 1.0 0.0
vn -0.15643449127674103 0.987688422203064 0.0
vn -0.15643449127674103 0.987688422203064 0.0
vn -0.45398959517478943 0.8910070061683655 0.0
vn -0.45398959517478943 0.8910070061683655 0.0
vn -0.7071067690849304 0.7071067690849304 0.0
vn -0.7071067690849304 0.7071067690849304 0.0
vn -0.8910070061683655 0.45398959517478943 0.0
vn -0.8910070061683655 0.45398959517478943 0.0
vn -0.987688422203064 0.15643449127674103 0.0
vn -0.987688422203064 0.15643449127674103 0.0
vn 0.9876883625984192 0.15643461048603058 0.0
vn 0.9876883625984192 0.15643461048603058 0.0
vn 0.8910068273544312 0.4539898931980133 0.0
vn 0.8910068273544312 0.4539898931980133 0.0
vn 0.7071075439453125 0.7071060538291931 0.0
vn 0.7071075439453125 0.7071060538291931 0.0
vn 0.45398959517478943 0.8910070061683655 0.0
vn 0.45398959517478943 0.8910070061683655 0.0
vn 0.15643449127674103 0.987688422203064 0.0
vn 0.15643449127674103 0.987688422203064 0.0
vn -1.0 0.0 0.0
vn -1.0 0.0 0.0
vn 1.0 0.0 0.0
vn 1.0 -0.0 0.0
vn -0.9876883625984192 -0.15643461048603058 -0.0
vn -0.9876883625984192 -0.15643461048603058 0.0
vn -0.8910068273544312 -0.4539898931980133 -0.0
vn -0.8910068273544312 -0.4539898931980133 0.0
vn -0.7071071267127991 -0.707106351852417 -0.0
vn -0.7071071267127991 -0.707106351852417 0.0
vn -0.4539901614189148 -0.8910067081451416 -0.0
vn -0.4539901614189148 -0.8910067081451416 0.0
vn -0.15643449127674103 -0.987688422203064 -0.0
vn -0.15643449127674103 -0.987688422203064 0.0
vn 0.9876883625984192 -0.15643461048603058 0.0
vn 0.9876883625984192 -0.15643461048603058 0.0
vn 0.8910068273544312 -0.4539898931980133 0.0
vn 0.8910068273544312 -0.4539898931980133 0.0
vn 0.7071072459220886 -0.7071062922477722 0.0
vn 0.7071072459220886 -0.7071062922477722 0.0
vn 0.4539901614189148 -0.8910067081451416 0.0
vn 0.4539901614189148 -0.8910067081451416 0.0
vn 0.1564342975616455 -0.987688422203064 0.0
vn 0.1564342975616455 -0.987688422203064 0.0
vn 0.0 -1.0 0.0
vn 0.0 -1.0 0.0
vn 0.0 0.0 -1.0
vn 0.0 0.0 -1.0
vn 0.0 0.0 -1.0
vn 0.0 0.0 -1.0
vn 0.0 -0.0 -1.0
vn 0.0 -0.0 -1.0
vn 0.0 -0.0 -1.0
vn 0.0 -0.0 -1.0
vn 0.0 0.0 -1.0
vn 0.0 0.0 -1.0
vn 0.0 0.0 -1.0
vn 0.0 0.0 -1.0
vn 0.0 0.0 -1.0
vn 0.0 0.0 -1.0
vn 0.0 0.0 -1.0
vn 0.0 0.0 -1.0
vn 0.0 0.0 -1.0
vn 0.0 0.0 -1.0
vn 0.0 0.0 -1.0
vn 0.0 0.0 -1.0
vn 0.0 0.0 -1.0
vn 0.0 0.0 -1.0
f 1//1 2//1 3//1 
f 1//2 3//2 4//2 
f 1//3 4//3 5//3 
f 1//4 5//4 6//4 
f 7//5 8//5 9//5 
f 7//6 9//6 10//6 
f 7//7 10//7 11//7 
f 7//8 11//8 12//8 
f 7//9 12//9 1//9 
f 7//10 1//10 6//10 
f 13//11 14//11 15//11 
f 13//12 16//12 14//12 
f 13//13 17//13 16//13 
f 13//14 18//14 17//14 
f 19//15 6//15 18//15 
f 19//16 13//16 20//16 
f 19//17 7//17 6//17 
f 19//18 18//18 13//18 
f 21//19 20//19 22//19 
f 21//20 19//20 20//20 
f 23//21 22//21 24//21 
f 23//22 21//22 22//22 
f 19//23 25//23 26//23 
f 19//24 26//24 7//24 
f 8//25 26//25 27//25 
f 8//26 7//26 26//26 
f 9//27 27//27 28//27 
f 9//28 8//28 27//28 
f 10//29 28//29 29//29 
f 10//30 9//30 28//30 
f 11//31 29//31 30//31 
f 11//32 10//32 29//32 
f 12//33 30//33 31//33 
f 12//34 11//34 30//34 
f 22//35 32//35 33//35 
f 22//36 20//36 32//36 
f 24//37 33//37 34//37 
f 24//38 22//38 33//38 
f 23//39 34//39 35//39 
f 23//40 24//40 34//40 
f 21//41 35//41 36//41 
f 21//42 23//42 35//42 
f 19//43 36//43 25//43 
f 19//44 21//44 36//44 
f 37//45 1//45 31//45 
f 31//46 1//46 12//46 
f 13//47 38//47 32//47 
f 13//48 32//48 20//48 
f 2//49 37//49 39//49 
f 2//50 1//50 37//50 
f 3//51 39//51 40//51 
f 3//52 2//52 39//52 
f 4//53 40//53 41//53 
f 4//54 3//54 40//54 
f 5//55 41//55 42//55 
f 5//56 4//56 41//56 
f 6//57 42//57 43//57 
f 6//58 5//58 42//58 
f 38//59 15//59 44//59 
f 13//60 15//60 38//60 
f 44//61 14//61 45//61 
f 15//62 14//62 44//62 
f 45//63 16//63 46//63 
f 14//64 16//64 45//64 
f 46//65 17//65 47//65 
f 16//66 17//66 46//66 
f 47//67 18//67 48//67 
f 17//68 18//68 47//68 
f 48//69 18//69 43//69 
f 43//70 18//70 6//70 
f 39//71 37//71 40//71 
f 40//72 37//72 41//72 
f 41//73 37//73 42//73 
f 42//74 37//74 43//74 
f 27//75 26//75 28//75 
f 28//76 26//76 29//76 
f 29//77 26//77 30//77 
f 30//78 26//78 31//78 
f 31//79 26//79 37//79 
f 37//80 26//80 43//80 
f 45//81 38//81 44//81 
f 46//82 38//82 45//82 
f 47//83 38//83 46//83 
f 48//84 38//84 47//84 
f 43//85 25//85 48//85 
f 38//86 25//86 32//86 
f 26//87 25//87 43//87 
f 48//88 25//88 38//88 
f 32//89 36//89 33//89 
f 25//90 36//90 32//90 
f 33//91 35//91 34//91 
f 36//92 35//92 33//92 
