# FreeCAD v0.19 build24291 (Git) Arch module
# http://www.freecadweb.org
mtllib 4.mtl
o Fillet001
usemtl color_cccccc
v 343.969269 461.202026 46.0
v 350.0 427.0 46.0
v 350.0 427.0 0.0
v 343.969269 461.202026 0.0
v 326.604431 491.278748 46.0
v 326.604431 491.278748 0.0
v 300.0 513.602539 46.0
v 300.0 513.602539 0.0
v 267.364807 525.480774 46.0
v 267.364807 525.480774 0.0
v 232.635178 525.480774 46.0
v 232.635178 525.480774 0.0
v 200.0 513.602539 46.0
v 200.0 513.602539 0.0
v 173.395554 491.278748 0.0
v 173.395554 491.278748 46.0
v 156.030731 461.202026 46.0
v 156.030731 461.202026 0.0
v 150.0 427.0 46.0
v 150.0 427.0 0.0
v 156.030731 392.797974 46.0
v 156.030731 392.797974 0.0
v 173.395554 362.721252 46.0
v 173.395554 362.721252 0.0
v 200.0 340.397461 46.0
v 200.0 340.397461 0.0
v 232.635178 328.519226 46.0
v 232.635178 328.519226 0.0
v 267.364807 328.519226 46.0
v 267.364807 328.519226 0.0
v 300.0 340.397461 46.0
v 300.0 340.397461 0.0
v 326.604431 362.721252 46.0
v 326.604431 362.721252 0.0
v 343.969269 392.797974 46.0
v 343.969269 392.797974 0.0
v 343.785309 461.135071 47.236069
v 349.80423 427.0 47.236069
v 343.251404 460.940735 48.351143
v 349.236053 427.0 48.351143
v 342.41983 460.638062 49.236069
v 348.351135 427.0 49.236069
v 341.372009 460.256683 49.804226
v 347.236053 427.0 49.804226
v 346.0 427.0 50.0
v 340.21048 459.833923 50.0
v 326.454468 491.152924 47.236069
v 326.019226 490.78772 48.351143
v 325.341339 490.218903 49.236069
v 324.487152 489.502136 49.804226
v 323.540253 488.707611 50.0
v 299.9021 513.432983 47.236069
v 299.618042 512.940979 48.351143
v 299.175568 512.174561 49.236069
v 298.618042 511.208893 49.804226
v 298.0 510.138428 50.0
v 266.670227 521.541565 50.0
v 267.330811 525.287964 47.236069
v 267.232147 524.728455 48.351143
v 267.078491 523.856995 49.236069
v 266.884857 522.75885 49.804226
v 233.329773 521.541565 50.0
v 232.669174 525.287964 47.236069
v 232.767838 524.728455 48.351143
v 232.921509 523.856995 49.236069
v 233.115128 522.75885 49.804226
v 200.097885 513.432983 47.236069
v 200.381973 512.940979 48.351143
v 200.824432 512.174561 49.236069
v 201.381973 511.208893 49.804226
v 202.0 510.138428 50.0
v 176.459732 488.707611 50.0
v 173.545532 491.152924 47.236069
v 173.980759 490.78772 48.351143
v 174.658661 490.218903 49.236069
v 175.512848 489.502136 49.804226
v 156.214706 461.135071 47.236069
v 156.748596 460.940735 48.351143
v 157.580154 460.638062 49.236069
v 158.627991 460.256683 49.804226
v 159.789505 459.833923 50.0
v 150.19577 427.0 47.236069
v 150.763931 427.0 48.351143
v 151.648865 427.0 49.236069
v 152.763931 427.0 49.804226
v 154.0 427.0 50.0
v 159.789505 394.166077 50.0
v 156.214706 392.864929 47.236069
v 156.748596 393.059265 48.351143
v 157.580154 393.361938 49.236069
v 158.627991 393.743317 49.804226
v 176.459732 365.292389 50.0
v 173.545532 362.847076 47.236069
v 173.980759 363.21228 48.351143
v 174.658661 363.781097 49.236069
v 175.512848 364.497864 49.804226
v 200.097885 340.567017 47.236069
v 200.381973 341.059052 48.351143
v 200.824432 341.825409 49.236069
v 201.381973 342.791107 49.804226
v 202.0 343.861572 50.0
v 232.669174 328.712036 47.236069
v 232.767838 329.271545 48.351143
v 232.921509 330.143036 49.236069
v 233.115128 331.24118 49.804226
v 233.329773 332.458466 50.0
v 267.330811 328.712036 47.236069
v 267.232147 329.271545 48.351143
v 267.078491 330.143036 49.236069
v 266.884857 331.24118 49.804226
v 266.670227 332.458466 50.0
v 299.9021 340.567017 47.236069
v 299.618042 341.059052 48.351143
v 299.175568 341.825409 49.236069
v 298.618042 342.791107 49.804226
v 298.0 343.861572 50.0
v 323.540253 365.292389 50.0
v 326.454468 362.847076 47.236069
v 326.019226 363.21228 48.351143
v 325.341339 363.781097 49.236069
v 324.487152 364.497864 49.804226
v 343.785309 392.864929 47.236069
v 343.251404 393.059265 48.351143
v 342.41983 393.361938 49.236069
v 341.372009 393.743317 49.804226
v 340.21048 394.166077 50.0
vn 0.9848077893257141 0.1736479252576828 0.0
vn 0.9848077893257141 0.1736479252576828 0.0
vn 0.8660250306129456 0.5000007748603821 0.0
vn 0.8660250306129456 0.5000007748603821 0.0
vn 0.6427879929542542 0.7660441398620605 0.0
vn 0.6427879929542542 0.7660441398620605 0.0
vn 0.34202003479003906 0.9396926164627075 0.0
vn 0.34202003479003906 0.9396926164627075 0.0
vn 0.0 1.0 0.0
vn -0.0 1.0 0.0
vn -0.3420201539993286 0.9396925568580627 0.0
vn -0.642787754535675 0.7660443186759949 0.0
vn -0.3420201539993286 0.9396925568580627 0.0
vn -0.642787754535675 0.7660443186759949 0.0
vn -0.8660251498222351 0.5000004172325134 0.0
vn -0.8660251498222351 0.5000004172325134 0.0
vn -0.9848077893257141 0.1736479252576828 0.0
vn -0.9848077893257141 0.1736479252576828 0.0
vn -0.9848077893257141 -0.1736479252576828 -0.0
vn -0.9848077893257141 -0.1736479252576828 0.0
vn -0.8660251498222351 -0.5000004172325134 -0.0
vn -0.8660251498222351 -0.5000004172325134 0.0
vn -0.642787754535675 -0.7660443186759949 -0.0
vn -0.642787754535675 -0.7660443186759949 0.0
vn -0.3420201539993286 -0.9396925568580627 -0.0
vn -0.3420201539993286 -0.9396925568580627 0.0
vn 0.0 -1.0 -0.0
vn -0.0 -1.0 0.0
vn 0.34202003479003906 -0.9396926164627075 0.0
vn 0.34202003479003906 -0.9396926164627075 0.0
vn 0.6427879929542542 -0.7660441398620605 0.0
vn 0.6427879929542542 -0.7660441398620605 0.0
vn 0.8660250306129456 -0.5000007748603821 0.0
vn 0.8660250306129456 -0.5000007748603821 0.0
vn 0.9848077893257141 -0.1736479252576828 0.0
vn 0.9848077893257141 -0.1736479252576828 0.0
vn 0.9730427265167236 0.17157331109046936 0.1541118621826172
vn 0.9730432033538818 0.17157351970672607 0.15410856902599335
vn 0.8802041411399841 0.15520329773426056 0.44850027561187744
vn 0.8802055716514587 0.1552036702632904 0.4484974145889282
vn 0.7016767263412476 0.12372469156980515 0.70167076587677
vn 0.7016672492027283 0.12372250854969025 0.7016807198524475
vn 0.45253944396972656 0.07979483157396317 0.8881670832633972
vn 0.1563768833875656 0.02757343463599682 0.9873124957084656
vn 0.4525437355041504 0.07979577034711838 0.8881648778915405
vn 0.15637439489364624 0.02757309190928936 0.9873129725456238
vn 0.8556801676750183 0.4940281808376312 0.15410248935222626
vn 0.635110080242157 0.7568938732147217 0.15410038828849792
vn 0.8556793928146362 0.4940274655818939 0.15410880744457245
vn 0.7740387916564941 0.4468918442726135 0.44849926233291626
vn 0.7740415930747986 0.44689372181892395 0.4484925866127014
vn 0.6170435547828674 0.3562505543231964 0.7016714215278625
vn 0.617034912109375 0.3562449514865875 0.701681911945343
vn 0.13751262426376343 0.0793929249048233 0.9873130321502686
vn 0.3979603350162506 0.22976233065128326 0.8881648778915405
vn 0.3979596197605133 0.22976189851760864 0.8881653547286987
vn 0.13751345872879028 0.07939337193965912 0.9873128533363342
vn 0.6351065039634705 0.7568912506103516 0.15412764251232147
vn 0.5745159983634949 0.6846804022789001 0.4484909474849701
vn 0.5745241641998291 0.684691846370697 0.4484628736972809
vn 0.4579862654209137 0.5458076000213623 0.701671302318573
vn 0.4579736590385437 0.5457908511161804 0.701692521572113
vn 0.2953794300556183 0.3520199954509735 0.8881626129150391
vn 0.10206624120473862 0.12163780629634857 0.9873128533363342
vn 0.05430855602025986 0.1492111086845398 0.9873127937316895
vn 0.2953752875328064 0.3520146310329437 0.8881661891937256
vn 0.10206594318151474 0.12163747102022171 0.987312912940979
vn 0.3379335105419159 0.9284650087356567 0.1541224867105484
vn 0.0 0.9880517721176147 0.1541227549314499
vn 0.3379334509372711 0.9284644722938538 0.15412601828575134
vn 0.305697500705719 0.8398988842964172 0.44846296310424805
vn 0.3056952953338623 0.8398908972740173 0.4484792649745941
vn 0.1571687012910843 0.4318154752254486 0.8881629705429077
vn 0.2436915636062622 0.6695385575294495 0.7016641497612
vn 0.24368277192115784 0.6695098280906677 0.7016946077346802
vn 0.0 0.15878796577453613 0.9873127341270447
vn 0.0543089359998703 0.14921227097511292 0.9873126745223999
vn 0.15716515481472015 0.43180689215660095 0.888167679309845
vn -0.33793362975120544 0.9284648895263672 0.1541224718093872
vn -0.0 0.8937940001487732 0.4484778046607971
vn -0.0 0.98805171251297 0.1541227400302887
vn -0.0 0.8937940001487732 0.4484778046607971
vn -0.0 0.7125070691108704 0.701664924621582
vn -0.0 0.7125070691108704 0.7016648650169373
vn -0.0 0.15878795087337494 0.9873126745223999
vn 0.0 0.45951956510543823 0.8881676197052002
vn -0.0 0.45951950550079346 0.888167679309845
vn -0.33793365955352783 0.9284650683403015 0.15412184596061707
vn -0.30569693446159363 0.8398954272270203 0.44846978783607483
vn -0.3056949973106384 0.8398911356925964 0.44847914576530457
vn -0.24369236826896667 0.6695361733436584 0.7016661167144775
vn -0.24368217587471008 0.669512152671814 0.701692521572113
vn -0.054308779537677765 0.14921171963214874 0.9873126745223999
vn -0.1020670011639595 0.12163880467414856 0.9873126745223999
vn -0.15716584026813507 0.43180835247039795 0.8881669044494629
vn -0.1571681797504425 0.4318140745162964 0.888163685798645
vn -0.05430874228477478 0.1492116004228592 0.9873127341270447
vn -0.6351090669631958 0.7568930983543396 0.15410801768302917
vn -0.6351075172424316 0.7568920254707336 0.15411987900733948
vn -0.5745172500610352 0.6846832633018494 0.44848504662513733
vn -0.5745204091072083 0.6846864819526672 0.4484759569168091
vn -0.4579756259918213 0.5457949042320251 0.7016881108283997
vn -0.2953774631023407 0.3520176410675049 0.8881642818450928
vn -0.4579840302467346 0.5458038449287415 0.7016756534576416
vn -0.1020667552947998 0.12163851410150528 0.9873127341270447
vn -0.29537519812583923 0.3520147502422333 0.8881661295890808
vn -0.855678141117096 0.4940265417098999 0.15411877632141113
vn -0.9730414152145386 0.171573206782341 0.1541203111410141
vn -0.8556790947914124 0.49402686953544617 0.15411297976970673
vn -0.7740423679351807 0.4468938410282135 0.44849106669425964
vn -0.7740455865859985 0.44689539074897766 0.44848406314849854
vn -0.6170392036437988 0.3562477231025696 0.7016767263412476
vn -0.6170397996902466 0.35624802112579346 0.7016760110855103
vn -0.1375148892402649 0.07939424365758896 0.9873126149177551
vn -0.13751405477523804 0.07939372211694717 0.9873127937316895
vn -0.39795956015586853 0.22976189851760864 0.8881653547286987
vn -0.39795637130737305 0.22976021468639374 0.8881672620773315
vn -0.9730426669120789 0.1715737283229828 0.1541118323802948
vn -0.8802088499069214 0.1552046239376068 0.4484906494617462
vn -0.8802103400230408 0.15520477294921875 0.448487788438797
vn -0.7016708254814148 0.12372345477342606 0.7016768455505371
vn -0.7016730904579163 0.12372373044490814 0.7016746997833252
vn -0.156374990940094 0.027573123574256897 0.9873127937316895
vn -0.156374990940094 -0.027573123574256897 0.9873127937316895
vn -0.15637631714344025 0.02757340855896473 0.9873126149177551
vn -0.4525388479232788 0.07979492843151093 0.8881673812866211
vn -0.45254436135292053 0.07979567348957062 0.8881645202636719
vn -0.9730414152145386 -0.171573206782341 0.1541203111410141
vn -0.9730426669120789 -0.1715737283229828 0.154111847281456
vn -0.8802089095115662 -0.15520451962947845 0.44849061965942383
vn -0.8802102208137512 -0.1552048772573471 0.448487788438797
vn -0.7016709446907043 -0.1237233504652977 0.7016768455505371
vn -0.45254430174827576 -0.07979566603899002 0.8881646394729614
vn -0.7016730904579163 -0.12372385710477829 0.7016746401786804
vn -0.1375148892402649 -0.07939424365758896 0.9873126149177551
vn -0.15637628734111786 -0.027573399245738983 0.9873125553131104
vn -0.4525388479232788 -0.07979492843151093 0.8881673812866211
vn -0.8556790351867676 -0.49402710795402527 0.1541128307580948
vn -0.8556783199310303 -0.49402642250061035 0.15411847829818726
vn -0.7740423679351807 -0.44689351320266724 0.4484913945198059
vn -0.7740454077720642 -0.4468955397605896 0.4484840929508209
vn -0.6170395016670227 -0.3562479317188263 0.7016763687133789
vn -0.6170390844345093 -0.3562476336956024 0.7016767859458923
vn -0.13751409947872162 -0.07939374446868896 0.9873127341270447
vn -0.3979561924934387 -0.22975994646549225 0.8881673216819763
vn -0.39795953035354614 -0.2297620326280594 0.8881653547286987
vn -0.6351086497306824 -0.7568933367729187 0.1541088968515396
vn -0.6351078748703003 -0.7568917274475098 0.15411999821662903
vn -0.5745170712471008 -0.684683084487915 0.44848552346229553
vn -0.5745153427124023 -0.6846812963485718 0.4484904408454895
vn -0.45798400044441223 -0.5458041429519653 0.701675534248352
vn -0.45798760652542114 -0.5458088517189026 0.7016695141792297
vn -0.29537269473075867 -0.35201147198677063 0.8881682753562927
vn -0.10206668078899384 -0.12163842469453812 0.9873127341270447
vn -0.295375257730484 -0.35201480984687805 0.8881661295890808
vn -0.1020670011639595 -0.12163880467414856 0.9873126745223999
vn -0.33793362975120544 -0.9284648895263672 0.1541224718093872
vn -0.33793365955352783 -0.9284650683403015 0.15412189066410065
vn -0.3056941330432892 -0.8398866057395935 0.4484880566596985
vn -0.3056952953338623 -0.8398908972740173 0.4484792649745941
vn -0.2436876744031906 -0.6695255041122437 0.7016779184341431
vn -0.24369016289710999 -0.6695336699485779 0.7016692161560059
vn -0.15716440975666046 -0.4318055510520935 0.888168454170227
vn -0.054308678954839706 -0.1492118239402771 0.9873126745223999
vn -0.15716537833213806 -0.43180862069129944 0.8881669044494629
vn -0.054308611899614334 -0.14921167492866516 0.9873127937316895
vn 0.0 -0.9880517721176147 0.1541227549314499
vn 0.0 -0.98805171251297 0.1541227400302887
vn 0.0 -0.8937940001487732 0.4484778046607971
vn 0.0 -0.8937940001487732 0.4484778046607971
vn 0.0 -0.7124947905540466 0.7016773223876953
vn 0.0 -0.7124948501586914 0.7016773819923401
vn 0.0 -0.45951950550079346 0.888167679309845
vn 0.0 -0.15878796577453613 0.9873127341270447
vn 0.0 -0.15878795087337494 0.9873126745223999
vn 0.0 -0.45951950550079346 0.8881677389144897
vn 0.33793333172798157 -0.928464412689209 0.15412591397762299
vn 0.33793359994888306 -0.9284648895263672 0.15412256121635437
vn 0.30569541454315186 -0.8398908972740173 0.4484792947769165
vn 0.30569490790367126 -0.8398898243904114 0.4484814405441284
vn 0.2436881959438324 -0.6695275902748108 0.7016757726669312
vn 0.24368949234485626 -0.6695317625999451 0.701671302318573
vn 0.05430879816412926 -0.1492122858762741 0.9873126745223999
vn 0.054308436810970306 -0.14921118319034576 0.9873127937316895
vn 0.10206624120473862 -0.12163780629634857 0.9873128533363342
vn 0.1571647971868515 -0.4318070411682129 0.8881677389144897
vn 0.15716485679149628 -0.43180716037750244 0.888167679309845
vn 0.6351064443588257 -0.7568911910057068 0.1541280746459961
vn 0.635110080242157 -0.7568938732147217 0.15410038828849792
vn 0.5745194554328918 -0.6846862435340881 0.44847750663757324
vn 0.5745154619216919 -0.6846806406974792 0.44849130511283875
vn 0.45798537135124207 -0.5458057522773743 0.7016733288764954
vn 0.2953747808933258 -0.3520139753818512 0.888166606426239
vn 0.4579865038394928 -0.5458069443702698 0.7016716599464417
vn 0.10206598043441772 -0.12163751572370529 0.987312912940979
vn 0.2953752875328064 -0.3520146310329437 0.8881661891937256
vn 0.8556793928146362 -0.494027704000473 0.154108464717865
vn 0.8556801676750183 -0.49402791261672974 0.1541033238172531
vn 0.9730432033538818 -0.17157351970672607 0.15410856902599335
vn 0.9730427265167236 -0.17157331109046936 0.1541118621826172
vn 0.7740384936332703 -0.44689199328422546 0.44849950075149536
vn 0.8802041411399841 -0.15520329773426056 0.44850027561187744
vn 0.7016768455505371 -0.12372418493032455 0.70167076587677
vn 0.8802055716514587 -0.1552036702632904 0.4484974145889282
vn 0.7740415334701538 -0.44689345359802246 0.4484930634498596
vn 0.45253950357437134 -0.07979502528905869 0.8881670832633972
vn 0.7016671299934387 -0.12372300028800964 0.7016807794570923
vn 0.61704421043396 -0.3562503159046173 0.7016709446907043
vn 0.6170350313186646 -0.35624560713768005 0.7016814351081848
vn 0.1563768833875656 -0.02757343463599682 0.9873124957084656
vn 0.1375134289264679 -0.07939338684082031 0.9873128533363342
vn 0.15637439489364624 -0.02757309190928936 0.9873129725456238
vn 0.137512668967247 -0.07939291000366211 0.9873130321502686
vn 0.39795956015586853 -0.22976189851760864 0.8881653547286987
vn 0.4525437653064728 -0.07979559153318405 0.8881648182868958
vn 0.3979601562023163 -0.2297622114419937 0.8881649971008301
vn 0.0 0.0 -1.0
vn 0.0 0.0 -1.0
vn 0.0 0.0 -1.0
vn 0.0 0.0 -1.0
vn 0.0 -0.0 -1.0
vn 0.0 -0.0 -1.0
vn 0.0 0.0 -1.0
vn 0.0 0.0 -1.0
vn 0.0 -0.0 -1.0
vn 0.0 0.0 -1.0
vn 0.0 0.0 -1.0
vn 0.0 0.0 -1.0
vn -0.0 -0.0 -1.0
vn 0.0 0.0 -1.0
vn 0.0 0.0 -1.0
vn -0.0 -0.0 -1.0
vn 0.0 0.0 1.0
vn 0.0 0.0 1.0
vn 0.0 0.0 1.0
vn 0.0 0.0 1.0
vn 0.0 0.0 1.0
vn 0.0 0.0 1.0
vn 0.0 0.0 1.0
vn 0.0 0.0 1.0
vn 0.0 0.0 1.0
vn 0.0 0.0 1.0
vn 0.0 0.0 1.0
vn 0.0 0.0 1.0
vn 0.0 0.0 1.0
vn 0.0 0.0 1.0
vn 0.0 0.0 1.0
vn 0.0 0.0 1.0
f 1//1 2//1 3//1 
f 1//2 3//2 4//2 
f 5//3 4//3 6//3 
f 5//4 1//4 4//4 
f 7//5 6//5 8//5 
f 7//6 5//6 6//6 
f 9//7 8//7 10//7 
f 9//8 7//8 8//8 
f 11//9 10//9 12//9 
f 11//10 9//10 10//10 
f 13//11 12//11 14//11 
f 13//12 14//12 15//12 
f 13//13 11//13 12//13 
f 16//14 13//14 15//14 
f 17//15 15//15 18//15 
f 17//16 16//16 15//16 
f 19//17 18//17 20//17 
f 19//18 17//18 18//18 
f 21//19 20//19 22//19 
f 21//20 19//20 20//20 
f 23//21 22//21 24//21 
f 23//22 21//22 22//22 
f 25//23 24//23 26//23 
f 25//24 23//24 24//24 
f 27//25 26//25 28//25 
f 27//26 25//26 26//26 
f 29//27 28//27 30//27 
f 29//28 27//28 28//28 
f 31//29 29//29 30//29 
f 31//30 30//30 32//30 
f 33//31 31//31 32//31 
f 33//32 32//32 34//32 
f 35//33 33//33 34//33 
f 35//34 34//34 36//34 
f 2//35 35//35 36//35 
f 2//36 36//36 3//36 
f 37//37 38//37 2//37 
f 37//38 2//38 1//38 
f 39//39 40//39 38//39 
f 39//40 38//40 37//40 
f 41//41 42//41 40//41 
f 41//42 40//42 39//42 
f 43//43 44//43 42//43 
f 43//44 45//44 44//44 
f 43//45 42//45 41//45 
f 43//46 46//46 45//46 
f 47//47 1//47 5//47 
f 47//48 5//48 7//48 
f 47//49 37//49 1//49 
f 48//50 39//50 37//50 
f 48//51 37//51 47//51 
f 49//52 39//52 48//52 
f 49//53 41//53 39//53 
f 50//54 51//54 46//54 
f 50//55 43//55 41//55 
f 50//56 41//56 49//56 
f 50//57 46//57 43//57 
f 52//58 47//58 7//58 
f 53//59 48//59 47//59 
f 53//60 47//60 52//60 
f 54//61 49//61 48//61 
f 54//62 48//62 53//62 
f 55//63 49//63 54//63 
f 55//64 56//64 51//64 
f 55//65 57//65 56//65 
f 55//66 50//66 49//66 
f 55//67 51//67 50//67 
f 58//68 7//68 9//68 
f 58//69 9//69 11//69 
f 58//70 52//70 7//70 
f 59//71 53//71 52//71 
f 59//72 52//72 58//72 
f 60//73 55//73 54//73 
f 60//74 53//74 59//74 
f 60//75 54//75 53//75 
f 61//76 62//76 57//76 
f 61//77 57//77 55//77 
f 61//78 55//78 60//78 
f 63//79 11//79 13//79 
f 63//80 59//80 58//80 
f 63//81 58//81 11//81 
f 64//82 59//82 63//82 
f 64//83 60//83 59//83 
f 65//84 60//84 64//84 
f 66//85 62//85 61//85 
f 66//86 60//86 65//86 
f 66//87 61//87 60//87 
f 67//88 63//88 13//88 
f 68//89 63//89 67//89 
f 68//90 64//90 63//90 
f 69//91 65//91 64//91 
f 69//92 64//92 68//92 
f 70//93 71//93 62//93 
f 70//94 72//94 71//94 
f 70//95 66//95 65//95 
f 70//96 65//96 69//96 
f 70//97 62//97 66//97 
f 73//98 13//98 16//98 
f 73//99 67//99 13//99 
f 74//100 67//100 73//100 
f 74//101 68//101 67//101 
f 75//102 69//102 68//102 
f 75//103 70//103 69//103 
f 75//104 68//104 74//104 
f 76//105 72//105 70//105 
f 76//106 70//106 75//106 
f 77//107 16//107 17//107 
f 77//108 17//108 19//108 
f 77//109 73//109 16//109 
f 78//110 73//110 77//110 
f 78//111 74//111 73//111 
f 79//112 75//112 74//112 
f 79//113 74//113 78//113 
f 80//114 81//114 72//114 
f 80//115 72//115 76//115 
f 80//116 76//116 75//116 
f 80//117 75//117 79//117 
f 82//118 77//118 19//118 
f 83//119 77//119 82//119 
f 83//120 78//120 77//120 
f 84//121 78//121 83//121 
f 84//122 79//122 78//122 
f 85//123 86//123 81//123 
f 85//124 87//124 86//124 
f 85//125 81//125 80//125 
f 85//126 80//126 79//126 
f 85//127 79//127 84//127 
f 88//128 19//128 21//128 
f 88//129 82//129 19//129 
f 89//130 83//130 82//130 
f 89//131 82//131 88//131 
f 90//132 84//132 83//132 
f 90//133 85//133 84//133 
f 90//134 83//134 89//134 
f 91//135 92//135 87//135 
f 91//136 87//136 85//136 
f 91//137 85//137 90//137 
f 93//138 21//138 23//138 
f 93//139 88//139 21//139 
f 94//140 89//140 88//140 
f 94//141 88//141 93//141 
f 95//142 90//142 89//142 
f 95//143 89//143 94//143 
f 96//144 92//144 91//144 
f 96//145 91//145 90//145 
f 96//146 90//146 95//146 
f 97//147 93//147 23//147 
f 97//148 23//148 25//148 
f 97//149 94//149 93//149 
f 98//150 94//150 97//150 
f 99//151 95//151 94//151 
f 99//152 94//152 98//152 
f 100//153 95//153 99//153 
f 100//154 92//154 96//154 
f 100//155 96//155 95//155 
f 100//156 101//156 92//156 
f 102//157 25//157 27//157 
f 102//158 97//158 25//158 
f 103//159 98//159 97//159 
f 103//160 97//160 102//160 
f 104//161 98//161 103//161 
f 104//162 99//162 98//162 
f 105//163 100//163 99//163 
f 105//164 101//164 100//164 
f 105//165 99//165 104//165 
f 105//166 106//166 101//166 
f 107//167 27//167 29//167 
f 107//168 102//168 27//168 
f 108//169 103//169 102//169 
f 108//170 102//170 107//170 
f 109//171 103//171 108//171 
f 109//172 104//172 103//172 
f 110//173 105//173 104//173 
f 110//174 111//174 106//174 
f 110//175 106//175 105//175 
f 110//176 104//176 109//176 
f 112//177 29//177 31//177 
f 112//178 107//178 29//178 
f 113//179 108//179 107//179 
f 113//180 107//180 112//180 
f 113//181 109//181 108//181 
f 114//182 109//182 113//182 
f 115//183 111//183 110//183 
f 115//184 116//184 111//184 
f 115//185 117//185 116//185 
f 115//186 110//186 109//186 
f 115//187 109//187 114//187 
f 118//188 112//188 31//188 
f 118//189 31//189 33//189 
f 118//190 113//190 112//190 
f 119//191 113//191 118//191 
f 120//192 114//192 113//192 
f 120//193 115//193 114//193 
f 120//194 113//194 119//194 
f 121//195 117//195 115//195 
f 121//196 115//196 120//196 
f 122//197 33//197 35//197 
f 122//198 118//198 33//198 
f 122//199 35//199 2//199 
f 122//200 2//200 38//200 
f 123//201 118//201 122//201 
f 123//202 38//202 40//202 
f 123//203 40//203 42//203 
f 123//204 122//204 38//204 
f 123//205 119//205 118//205 
f 124//206 42//206 44//206 
f 124//207 123//207 42//207 
f 124//208 120//208 119//208 
f 124//209 119//209 123//209 
f 125//210 44//210 45//210 
f 125//211 126//211 117//211 
f 125//212 45//212 126//212 
f 125//213 117//213 121//213 
f 125//214 121//214 120//214 
f 125//215 124//215 44//215 
f 125//216 120//216 124//216 
f 24//217 28//217 26//217 
f 22//218 20//218 24//218 
f 24//219 20//219 28//219 
f 28//220 32//220 30//220 
f 18//221 15//221 20//221 
f 14//222 12//222 15//222 
f 28//223 12//223 32//223 
f 20//224 12//224 28//224 
f 15//225 12//225 20//225 
f 32//226 4//226 34//226 
f 34//227 4//227 36//227 
f 36//228 4//228 3//228 
f 10//229 8//229 12//229 
f 12//230 6//230 32//230 
f 32//231 6//231 4//231 
f 8//232 6//232 12//232 
f 106//233 92//233 101//233 
f 81//234 86//234 87//234 
f 81//235 87//235 92//235 
f 116//236 106//236 111//236 
f 71//237 72//237 81//237 
f 45//238 116//238 117//238 
f 45//239 117//239 126//239 
f 57//240 62//240 71//240 
f 46//241 92//241 106//241 
f 46//242 106//242 116//242 
f 46//243 81//243 92//243 
f 46//244 116//244 45//244 
f 51//245 56//245 57//245 
f 51//246 57//246 71//246 
f 51//247 71//247 81//247 
f 51//248 81//248 46//248 
